#!OML:ASF I:\Actors\actors\Patient Classification 2\Patient 1\Session 1\actor1.ASF
:FULLY-SPECIFIED
:DEGREES
665
root -0.328656 18.7427 5.70747 13.3395 6.27322 -1.02291
lowerback 21.5778 0.202555 2.68186
upperback -1.21513 0.920337 -0.338185
thorax -13.5136 0.210118 -2.21898
lowerneck -5.7369 -0.842271 2.16631
upperneck -20.4395 -1.48512 -2.33635
head -5.25893 -0.729139 -1.06079
rclavicle -2.00151e-014 -1.30204e-014
rhumerus -6.36414 25.8191 -77.6866
rradius 138.544
rwrist 16.0901
rhand -16.4962 -25.7465
rfingers 7.12502
rthumb 9.72145 304.498
lclavicle -2.00151e-014 -1.30204e-014
lhumerus -35.0146 -19.6786 96.3218
lradius 118.919
lwrist -1.25913
lhand -0.689432 -6.65189
lfingers 7.12502
lthumb 24.9299 21.7421
rfemur -7.67491 -3.91255 14.7267
rtibia 5.3232
rfoot -19.4276 -15.3824
rtoes -9.11274
lfemur -25.4022 -3.16483 -12.8503
ltibia 30.0824
lfoot -17.9261 4.27441
ltoes -56.1005
666
root -0.331808 18.7419 5.70625 13.4099 6.16519 -1.04904
lowerback 21.4886 0.246336 2.60065
upperback -1.25382 0.968961 -0.237093
thorax -13.5074 0.242895 -2.0726
lowerneck -5.47463 -1.09088 1.80753
upperneck -20.0235 -1.69012 -1.52806
head -5.16843 -0.851343 -0.738061
rclavicle -6.59717e-015 5.71506e-015
rhumerus -7.60283 25.5177 -78.4535
rradius 138.252
rwrist 15.8529
rhand -16.2067 -25.5871
rfingers 7.12502
rthumb 10.0007 304.67
lclavicle -6.59717e-015 5.71506e-015
lhumerus -34.8931 -19.5765 96.4786
lradius 118.918
lwrist -1.24213
lhand -0.64202 -6.63061
lfingers 7.12502
lthumb 24.9753 21.7571
rfemur -7.90648 -3.80867 14.7412
rtibia 5.5609
rfoot -19.5079 -15.3081
rtoes -9.26834
lfemur -25.4843 -3.11478 -12.8217
ltibia 30.1139
lfoot -17.935 4.31081
ltoes -56.0733
667
root -0.334396 18.7413 5.70606 13.4796 6.02143 -1.03916
lowerback 21.3946 0.311919 2.46881
upperback -1.29053 1.02983 -0.161925
thorax -13.4961 0.283846 -1.93046
lowerneck -5.2593 -1.36732 1.4229
upperneck -19.4955 -1.93089 -0.67083
head -5.03194 -0.992146 -0.397087
rclavicle 6.60959e-015 -1.08338e-014
rhumerus -9.13686 25.0644 -79.5722
rradius 138.01
rwrist 15.7874
rhand -15.6275 -25.4299
rfingers 7.12502
rthumb 10.5595 304.855
lclavicle 6.60959e-015 -1.08338e-014
lhumerus -34.804 -19.5102 96.6316
lradius 118.898
lwrist -1.31405
lhand -0.685726 -6.65105
lfingers 7.12502
lthumb 24.9334 21.7424
rfemur -8.30881 -3.6795 14.7133
rtibia 6.13983
rfoot -19.6835 -15.1753
rtoes -9.51073
lfemur -25.5307 -3.05493 -12.8426
ltibia 30.1022
lfoot -17.8896 4.3974
ltoes -56.0414
668
root -0.335048 18.7405 5.70294 13.5272 5.73514 -0.914942
lowerback 21.3804 0.431397 2.20765
upperback -1.31509 1.12151 -0.155549
thorax -13.5165 0.344437 -1.80343
lowerneck -5.25894 -1.63642 0.913149
upperneck -18.7647 -2.15665 0.272049
head -4.79139 -1.12074 -0.0145861
rclavicle 4.79568e-015 -8.34896e-015
rhumerus -10.7195 24.5727 -80.6967
rradius 137.696
rwrist 15.8621
rhand -15.1612 -25.9321
rfingers 7.12502
rthumb 11.0093 304.377
lclavicle 4.79568e-015 -8.34896e-015
lhumerus -34.7456 -19.5377 96.7236
lradius 118.908
lwrist -1.38466
lhand -0.770726 -6.70817
lfingers 7.12502
lthumb 24.8519 21.6966
rfemur -8.56684 -3.43882 14.5153
rtibia 6.43068
rfoot -19.7427 -15.1408
rtoes -9.59773
lfemur -25.5313 -2.96432 -13.0181
ltibia 30.1061
lfoot -17.9049 4.56755
ltoes -56.008
669
root -0.334877 18.74 5.69571 13.5042 5.33942 -0.508438
lowerback 21.5109 0.588714 1.66484
upperback -1.30361 1.18097 -0.236792
thorax -13.584 0.406054 -1.60642
lowerneck -5.49493 -1.8902 0.268314
upperneck -17.5025 -2.36665 1.27274
head -4.85126 -1.22813 0.44455
rclavicle 1.36913e-014 7.85199e-015
rhumerus -12.2483 24.0292 -81.7914
rradius 137.316
rwrist 16.078
rhand -14.8561 -26.2848
rfingers 7.12502
rthumb 11.3035 304.04
lclavicle 1.36913e-014 7.85199e-015
lhumerus -34.6433 -19.6067 96.775
lradius 118.925
lwrist -1.38495
lhand -0.929623 -6.65883
lfingers 7.12502
lthumb 24.6997 21.7669
rfemur -8.70882 -3.15424 13.9781
rtibia 6.66724
rfoot -19.8174 -15.0945
rtoes -9.64339
lfemur -25.4002 -2.93857 -13.5198
ltibia 30.0786
lfoot -18.0101 4.8138
ltoes -55.9483
670
root -0.335897 18.7412 5.70956 13.6231 5.70056 -0.874536
lowerback 21.1754 0.425094 2.16127
upperback -1.30516 1.10714 -0.0730779
thorax -13.3894 0.347704 -1.67505
lowerneck -5.44619 -2.15388 -0.152961
upperneck -16.8418 -2.62472 2.07382
head -4.59076 -1.36518 0.787028
rclavicle 4.82053e-015 -5.1684e-015
rhumerus -13.7226 23.5071 -82.8542
rradius 136.957
rwrist 16.1925
rhand -14.6185 -26.501
rfingers 7.12502
rthumb 11.5327 303.836
lclavicle 4.82053e-015 -5.1684e-015
lhumerus -34.4903 -19.6314 96.8066
lradius 118.917
lwrist -1.43673
lhand -0.983656 -6.70414
lfingers 7.12502
lthumb 24.6479 21.7286
rfemur -8.92527 -3.42474 14.4818
rtibia 6.99106
rfoot -20.0467 -14.9721
rtoes -9.781
lfemur -25.5644 -2.92885 -13.0652
ltibia 30.0481
lfoot -17.9345 4.56138
ltoes -55.9169
671
root -0.336562 18.7414 5.71282 13.5789 5.79087 -0.804362
lowerback 21.1987 0.370922 2.13449
upperback -1.29052 1.03277 -0.044591
thorax -13.39 0.317081 -1.60401
lowerneck -5.47627 -2.41757 -0.370794
upperneck -16.0689 -2.92022 2.66784
head -4.28093 -1.52252 1.01656
rclavicle 8.74653e-015 7.55382e-015
rhumerus -15.1929 22.9591 -83.8838
rradius 136.631
rwrist 16.1189
rhand -14.1526 -26.9397
rfingers 7.12502
rthumb 11.982 303.423
lclavicle 8.74653e-015 7.55382e-015
lhumerus -34.3547 -19.6054 96.8521
lradius 118.926
lwrist -1.56298
lhand -0.835477 -6.7927
lfingers 7.12502
lthumb 24.7899 21.6206
rfemur -8.98063 -3.52377 14.4363
rtibia 7.29292
rfoot -20.1847 -14.8469
rtoes -9.59218
lfemur -25.4877 -2.98835 -13.1264
ltibia 29.9983
lfoot -17.8873 4.50478
ltoes -55.9995
